<svg id="Layer_1" data-name="Layer 1" xmlns="http://www.w3.org/2000/svg" viewBox="0 0 575.91 799.96"><defs><style>.cls-1{fill:#f1f2f2;}</style></defs><title>AuxBox2</title><path class="cls-1" d="M.16.76v800h576V.76Zm489.5,145.49H464.87c-1.33,0-36.85-28.67-36.85-28.67l-36.26,28.67c-.27,0-10.49.07-26.2.1-50.28.09-161.59.1-161.59.1L166.5,80.18l-35,66.27-44.9,0L145.7,45.33h41.77S203.85,69.91,222,98.94q4.36,7,8,12.89c.05-1.78-.13-66.5-.13-66.5h44s0,52.3,0,58.53q0,11.11,3.8,15,5.07,5.31,21.19,5.31,23.61,0,23.61-14.09V45.32H392.2l35.69,27.72s34.25-27.54,35.75-27.54l26-.14V71L459.14,95.07,489.69,119Z"/><path class="cls-1" d="M455.14,95.08a4,4,0,0,1,1.53-3.15l29-22.88V49.39l-21,.11c-3.76,2.46-20,15.2-34.24,26.67a4,4,0,0,1-5,0L390.83,49.33H326.62v60.76c0,8.25-4.79,18.09-27.61,18.09-12,0-19.88-2.14-24.08-6.55-3.29-3.37-4.91-9.2-4.91-17.77,0-5.18,0-42.19,0-54.53H234c0,14.93.16,61,.12,62.6a4,4,0,0,1-2.95,3.76,4.21,4.21,0,0,1-1.05.14,4,4,0,0,1-3.4-1.9q-3.66-5.91-8-12.87c-15.18-24.22-29.25-45.57-33.33-51.73H148L93.61,142.48l35.52,0L163,78.31a4,4,0,0,1,3.48-2.13h.06a4,4,0,0,1,3.48,2l36.32,64.24c16.31,0,113.57,0,159.25-.1,15.82,0,22.37,0,24.79-.08l35.2-27.82a4,4,0,0,1,2.48-.87,4,4,0,0,1,2.51.89c14.78,11.93,31.51,25.16,35.38,27.78h19.76l0-21.35-29-22.68A4,4,0,0,1,455.14,95.08Zm-56.35,3.23c-1.11.91-27.37,22.32-30.77,24.88a4,4,0,0,1-2.41.81,3.88,3.88,0,0,1-2.05-.58,4,4,0,0,1-1.9-4c.29-2.7.12-31.21-.06-48.58a4,4,0,0,1,2.24-3.64,4,4,0,0,1,1.76-.4,4,4,0,0,1,2.49.87l30.67,24.41a4,4,0,0,1,1.51,3.11A4,4,0,0,1,398.79,98.31Z"/><path class="cls-1" d="M365.62,120c3.37-2.54,30.65-24.79,30.65-24.79L365.6,70.8S366.08,117.06,365.62,120Z"/></svg>