<svg id="Layer_1" data-name="Layer 1" xmlns="http://www.w3.org/2000/svg" viewBox="0 0 288 57.32"><defs><style>.cls-1{fill:#f1f2f2;}</style></defs><title>AuxforSteve</title><path class="cls-1" d="M237.81,28,277.25,5.17l-36.78.21c-.88,0-20.64,12.55-20.64,12.55S199.55,5.3,198.77,5.3H182.94l-24.13,0s-.07,23.76-.07,26.88c0,4.28.29,9.25-13,9.25s-14.3-5.87-14.3-9.25c0-2.84-.12-26.85-.12-26.85H106.59s.1,29.49.07,30.3l-.1-.14C105,33.7,79.37,5.3,79.37,5.3H52.61L14.75,51.39l28.78,0L65.94,23.81,90,51.37h16.61c20.27,0,56.68,0,76.38,0h0c9.06,0,15.41,0,15.57,0l21.4-13.06s20.5,13.06,21.29,13.06l36.05-.14ZM182.94,39.11v-22L200.7,28Z"/></svg>