<svg id="Layer_1" data-name="Layer 1" xmlns="http://www.w3.org/2000/svg" viewBox="0 0 288 57.32"><defs><style>.cls-1{fill:#f1f2f2;}</style></defs><title>AuxforSteve</title><path class="cls-1" d="M83.43,31.31l-.38-.24a.53.53,0,0,1-.24-.55l.58-3.14-.78-.82h-1l-.77.82.58,3.14a.54.54,0,0,1-.24.55l-.38.24v1.54h2.65Z"/><path class="cls-1" d="M221.42,29.59,236,18V5.91h-12.4c-.72,0-17,13.13-17,13.13L189.63,5.91h-33.3V36.68q0,6.72-11.25,6.72-7.7,0-10.1-2.53-1.81-1.86-1.82-7.16c0-3,0-27.8,0-27.8h-21s.08,30.76,0,31.6C111.05,35.63,92,5.91,92,5.91H72L43.84,54H78.91V41.63a.54.54,0,0,1,.54-.53h.21L79.73,31a.53.53,0,0,1,.25-.45l.32-.2-.56-3.05a.57.57,0,0,1,.13-.47L81,25.65a.52.52,0,0,1,.39-.17h1.47a.54.54,0,0,1,.39.17l1.11,1.19a.54.54,0,0,1,.14.47l-.56,3.05.32.2a.55.55,0,0,1,.25.45l.07,10.09h.19a.53.53,0,0,1,.53.53V54l91.51,0c7.48,0,12.36,0,12.49,0l17.28-13.67s16.93,13.67,17.56,13.67H236l0-13ZM176.82,41.4c.22-1.39,0-23.45,0-23.45l14.62,11.64S178.43,40.19,176.82,41.4Z"/><path class="cls-1" d="M84.22,42.17H80V54h4.24Z"/><polygon class="cls-1" points="83.45 33.93 80.78 33.93 80.76 36.58 83.46 36.58 83.45 33.93"/><polygon class="cls-1" points="80.76 37.65 80.73 41.1 83.49 41.1 83.47 37.65 80.76 37.65"/></svg>