<svg id="Layer_1" data-name="Layer 1" xmlns="http://www.w3.org/2000/svg" viewBox="0 0 175.6 72.27"><defs><style>.cls-1{fill:#f1f2f2;}</style></defs><title>AuxWhite</title><polygon class="cls-1" points="31.95 57.75 31.89 66.05 38.24 66.06 38.19 57.76 31.95 57.75"/><path class="cls-1" d="M32.83,39l-.74.47,0,3.24h6l0-3.25L37.35,39a2.28,2.28,0,0,1-1-2.31l1.59-8.54-1.72-1.83H34l-1.72,1.83,1.57,8.53A2.26,2.26,0,0,1,32.83,39Z"/><polygon class="cls-1" points="31.99 53.25 38.17 53.26 38.13 47.2 32.03 47.2 31.99 53.25"/><path class="cls-1" d="M147.12,20.28S135.86,3.82,133.29.63H102.22c-.14.25-.12,40.78-.12,45.57,0,0-.64,9.88-10.17,9.88s-9.24-9.9-9.24-9.9l0-45.55L62.21.7c-.07.17,0,44.91,0,46C61.12,43.86,46,5,44.41,1.56a5.91,5.91,0,0,0-.54-.93H25.48a7.4,7.4,0,0,0-.39,1C24.4,3.85.46,69.78.46,70.64l24.8,0V68.29a2.25,2.25,0,0,1,2.13-2.24l.22-27.86a2.23,2.23,0,0,1,1.05-1.88l.49-.31-1.49-8.16a2.25,2.25,0,0,1,.57-1.95l3.17-3.36A2.23,2.23,0,0,1,33,21.82h4.16a2.28,2.28,0,0,1,1.64.72L42,25.91a2.23,2.23,0,0,1,.57,1.94L41,36l.5.31a2.25,2.25,0,0,1,1,1.89l.15,27.86a2.25,2.25,0,0,1,2.07,2.24v2.31l89-.11,13.42-19s13.07,19,13.6,19h13.47V56l-14.7-20.28s11.81-16.16,14.7-20.7V.63h-13.4C158.33,3.7,147.12,20.28,147.12,20.28ZM120.31,56V16l14.25,19.84Z"/></svg>